<svg xmlns="http://www.w3.org/2000/svg" width="16" height="17.067" viewBox="0 0 16 17.067">
  <path id="Icon_metro-calendar" data-name="Icon metro-calendar" d="M7.9,8.328h2.133v2.133H7.9Zm3.2,0h2.133v2.133H11.1Zm3.2,0h2.133v2.133H14.3Zm-9.6,6.4H6.837v2.133H4.7Zm3.2,0h2.133v2.133H7.9Zm3.2,0h2.133v2.133H11.1Zm-3.2-3.2h2.133v2.133H7.9Zm3.2,0h2.133v2.133H11.1Zm3.2,0h2.133v2.133H14.3Zm-9.6,0H6.837v2.133H4.7Zm11.733-9.6V2.995H14.3V1.928H6.837V2.995H4.7V1.928H2.571V18.995h16V1.928H16.437Zm1.067,16H3.637V6.195H17.5Z" transform="translate(-2.571 -1.928)" fill="#a0a5af"/>
</svg>
