<svg xmlns="http://www.w3.org/2000/svg" width="17.742" height="17.742" viewBox="0 0 17.742 17.742">
  <path id="Icon_ionic-ios-checkmark-circle" data-name="Icon ionic-ios-checkmark-circle" d="M12.246,3.375a8.871,8.871,0,1,0,8.871,8.871A8.87,8.87,0,0,0,12.246,3.375Zm4.542,6.419-5.7,5.728h0a.77.77,0,0,1-.495.235.747.747,0,0,1-.5-.243L7.7,13.124a.17.17,0,0,1,0-.243l.759-.759a.165.165,0,0,1,.239,0l1.894,1.894,5.2-5.242a.168.168,0,0,1,.119-.051h0a.155.155,0,0,1,.119.051l.746.772A.168.168,0,0,1,16.788,9.794Z" transform="translate(-3.375 -3.375)" fill="#3db7e4"/>
</svg>
