<svg id="Component_15_1" data-name="Component 15 – 1" xmlns="http://www.w3.org/2000/svg" width="40" height="40" viewBox="0 0 40 40">
  <circle id="Ellipse_34" data-name="Ellipse 34" cx="20" cy="20" r="20" fill="#ecc200"/>
  <path id="Path_184" data-name="Path 184" d="M80.8,600.558q.538.983,1.074,1.967.568,1.044,1.139,2.087a5.4,5.4,0,0,0-.86,2.2,3.92,3.92,0,0,0,.221,2.1,2.222,2.222,0,0,0,2.1,1.495,2.56,2.56,0,0,0,.93-.184,3.373,3.373,0,0,0,1.448-1.1,5.069,5.069,0,0,0,1.108-2.691q1.477-.579,2.951-1.169a26.4,26.4,0,0,0-2.8,5.575,13.953,13.953,0,0,0-.873,4.942H76.9l-2.527,0a15.245,15.245,0,0,0-1.525-6.576,27.674,27.674,0,0,0-2.14-3.933l.614.246q1.165.468,2.333.929a5.046,5.046,0,0,0,.983,2.529,3.737,3.737,0,0,0,1.2,1.069,2.624,2.624,0,0,0,1.3.364,2.3,2.3,0,0,0,2.215-1.794,4.513,4.513,0,0,0-.189-2.933,4.922,4.922,0,0,0-.563-1.071q.571-1.042,1.139-2.086.536-.985,1.074-1.967" transform="translate(-60.805 -588.172)" fill="#fff"/>
</svg>
