<svg xmlns="http://www.w3.org/2000/svg" width="22.5" height="22.505" viewBox="0 0 22.5 22.505">
  <path id="Icon_metro-link" data-name="Icon metro-link" d="M12.571,16.328a1.167,1.167,0,0,1-.828-.343,5.5,5.5,0,0,1,0-7.766L16.064,3.9a5.491,5.491,0,1,1,7.766,7.766l-1.975,1.975A1.17,1.17,0,0,1,20.2,11.984l1.975-1.975a3.151,3.151,0,0,0-4.456-4.456L13.4,9.874a3.154,3.154,0,0,0,0,4.456,1.17,1.17,0,0,1-.827,2ZM8.424,24.795a5.491,5.491,0,0,1-3.883-9.374l1.975-1.975A1.17,1.17,0,1,1,8.172,15.1L6.2,17.076a3.151,3.151,0,0,0,4.456,4.456l4.321-4.321a3.154,3.154,0,0,0,0-4.456A1.17,1.17,0,1,1,16.628,11.1a5.5,5.5,0,0,1,0,7.766l-4.321,4.321a5.456,5.456,0,0,1-3.883,1.608Z" transform="translate(-2.936 -2.29)" fill="#a0a5af"/>
</svg>
