<svg xmlns="http://www.w3.org/2000/svg" width="16.832" height="14.749" viewBox="0 0 16.832 14.749">
  <g id="Group_565" data-name="Group 565" transform="translate(-5 -147)">
    <path id="Path_20" data-name="Path 20" d="M14.369,6.649A4.931,4.931,0,0,0,5.411,4.377,2.33,2.33,0,0,0,4.527,4.2,2.435,2.435,0,0,0,2.18,6.616,3.211,3.211,0,0,0,0,9.663,3.092,3.092,0,0,0,2.988,12.77h5V8.1L6.414,9.657a.428.428,0,1,1-.6-.608l2.3-2.268h0a.418.418,0,0,1,.135-.089.408.408,0,0,1,.164-.033.428.428,0,0,1,.3.122l2.3,2.268a.428.428,0,1,1-.6.608L8.843,8.1V12.77h5a3.094,3.094,0,0,0,.526-6.121Z" transform="translate(5 144.75)" fill="#a0a5af"/>
    <path id="Path_21" data-name="Path 21" d="M17.086,28.549a.429.429,0,1,0,.859,0v-3.8h-.859Z" transform="translate(-4.098 132.77)" fill="#a0a5af"/>
  </g>
</svg>
