<svg xmlns="http://www.w3.org/2000/svg" width="13.272" height="15.485" viewBox="0 0 13.272 15.485">
  <g id="Icon_awesome-user-friends" data-name="Icon awesome-user-friends" transform="translate(0 -2.25)" fill="none">
    <path d="M6.636,9.992A3.871,3.871,0,1,0,2.765,6.121,3.869,3.869,0,0,0,6.636,9.992ZM9.291,11.1H9a5.345,5.345,0,0,1-4.735,0H3.982A3.983,3.983,0,0,0,0,15.08v1a1.659,1.659,0,0,0,1.659,1.659h9.954a1.659,1.659,0,0,0,1.659-1.659C13.272,12.882,11.489,11.1,9.291,11.1Z" stroke="none"/>
    <path d="M 6.636238574981689 3.749998092651367 C 5.328788757324219 3.749998092651367 4.265098571777344 4.813688278198242 4.265098571777344 6.121138572692871 C 4.265098571777344 7.428587913513184 5.328788757324219 8.492278099060059 6.636238574981689 8.492278099060059 C 7.94368839263916 8.492278099060059 9.007378578186035 7.428587913513184 9.007378578186035 6.121138572692871 C 9.007378578186035 4.813688278198242 7.94368839263916 3.749998092651367 6.636238574981689 3.749998092651367 M 3.948266983032227 12.59854125976562 C 2.59521484375 12.61654567718506 1.499999046325684 13.72281074523926 1.499999046325684 15.08005809783936 L 1.499999046325684 16.07549858093262 C 1.499999046325684 16.1632080078125 1.571348190307617 16.23455810546875 1.659058570861816 16.23455810546875 L 11.61341857910156 16.23455810546875 C 11.70112895965576 16.23455810546875 11.7724781036377 16.1632080078125 11.7724781036377 16.07549858093262 C 11.7724781036377 14.92045783996582 11.49311828613281 13.98234748840332 10.96459865570068 13.36257743835449 C 10.54560279846191 12.87123489379883 9.979372024536133 12.60751914978027 9.325301170349121 12.59855461120605 C 8.457331657409668 12.96554565429688 7.55439567565918 13.15133857727051 6.636238574981689 13.15133857727051 C 5.721391201019287 13.15133857727051 4.818835258483887 12.96555137634277 3.948266983032227 12.59854125976562 M 6.636238574981689 2.249998092651367 C 8.775738716125488 2.249998092651367 10.50737857818604 3.981647491455078 10.50737857818604 6.121138572692871 C 10.50737857818604 8.260638236999512 8.775738716125488 9.992278099060059 6.636238574981689 9.992278099060059 C 4.496738433837891 9.992278099060059 2.765098571777344 8.260638236999512 2.765098571777344 6.121138572692871 C 2.765098571777344 3.981647491455078 4.496738433837891 2.249998092651367 6.636238574981689 2.249998092651367 Z M 3.981739044189453 11.09831809997559 L 4.268618583679199 11.09831809997559 C 4.991008758544922 11.4439582824707 5.785968780517578 11.65133762359619 6.636238574981689 11.65133762359619 C 7.486508369445801 11.65133762359619 8.284929275512695 11.4439582824707 9.00385856628418 11.09831809997559 L 9.290728569030762 11.09831809997559 C 11.48898887634277 11.09831809997559 13.2724781036377 12.88180828094482 13.2724781036377 16.07549858093262 C 13.2724781036377 16.9914379119873 12.52935886383057 17.73455810546875 11.61341857910156 17.73455810546875 L 1.659058570861816 17.73455810546875 C 0.7431182861328125 17.73455810546875 -9.5367431640625e-07 16.9914379119873 -9.5367431640625e-07 16.07549858093262 L -9.5367431640625e-07 15.08005809783936 C -9.5367431640625e-07 12.88180828094482 1.783488273620605 11.09831809997559 3.981739044189453 11.09831809997559 Z" stroke="none" fill="#a0a5af"/>
  </g>
</svg>
