<svg xmlns="http://www.w3.org/2000/svg" width="18.507" height="15.399" viewBox="0 0 18.507 15.399">
  <g id="Group_700" data-name="Group 700" transform="translate(-14.811 -181.104)">
    <path id="Icon_awesome-user-minus" data-name="Icon awesome-user-minus" d="M4.315,4.932A2.466,2.466,0,1,0,1.849,2.466,2.466,2.466,0,0,0,4.315,4.932Zm1.726.617H5.72a3.354,3.354,0,0,1-2.809,0H2.589A2.59,2.59,0,0,0,0,8.138v.8a.925.925,0,0,0,.925.925H7.706a.925.925,0,0,0,.925-.925v-.8A2.59,2.59,0,0,0,6.042,5.548Z" transform="translate(24.687 183.872)" fill="#e0e0e0"/>
    <g id="Icon_awesome-user-minus-2" data-name="Icon awesome-user-minus" transform="translate(15.811 182.104)" fill="#a0a5af">
      <path d="M 10.46777629852295 13.89875888824463 L 1.256136655807495 13.89875888824463 C 0.2877965867519379 13.89875888824463 -0.5000033974647522 13.11095809936523 -0.5000033974647522 12.14262866973877 L -0.5000033974647522 11.05397891998291 C -0.5000033974647522 8.838898658752441 1.302096605300903 7.036798477172852 3.517176628112793 7.036798477172852 L 3.954206705093384 7.036798477172852 L 4.063126564025879 7.036798477172852 L 4.162186622619629 7.082108497619629 C 4.703876495361328 7.329878330230713 5.275766372680664 7.455508708953857 5.861956596374512 7.455508708953857 C 6.450576782226562 7.455508708953857 7.022206783294678 7.32999849319458 7.560956478118896 7.08245849609375 L 7.660336494445801 7.036798477172852 L 7.769706726074219 7.036798477172852 L 8.20673656463623 7.036798477172852 C 10.4218168258667 7.036798477172852 12.22391700744629 8.838898658752441 12.22391700744629 11.05397891998291 L 12.22391700744629 12.14262866973877 C 12.22391700744629 13.11095809936523 11.43611621856689 13.89875888824463 10.46777629852295 13.89875888824463 Z M 5.861956596374512 7.199378490447998 C 3.739226579666138 7.199378490447998 2.012266635894775 5.472418308258057 2.012266635894775 3.349688529968262 C 2.012266635894775 1.226958513259888 3.739226579666138 -0.5000014901161194 5.861956596374512 -0.5000014901161194 C 7.984686374664307 -0.5000014901161194 9.711647033691406 1.226958513259888 9.711647033691406 3.349688529968262 C 9.711647033691406 5.472418308258057 7.984686374664307 7.199378490447998 5.861956596374512 7.199378490447998 Z" stroke="none"/>
      <path d="M 5.861956596374512 -1.9073486328125e-06 C 4.011776447296143 -1.9073486328125e-06 2.512266159057617 1.499508857727051 2.512266159057617 3.349688529968262 C 2.512266159057617 5.199868202209473 4.011776447296143 6.699378490447998 5.861956596374512 6.699378490447998 C 7.712136745452881 6.699378490447998 9.211647033691406 5.199868202209473 9.211647033691406 3.349688529968262 C 9.211647033691406 1.499508857727051 7.712136745452881 -1.9073486328125e-06 5.861956596374512 -1.9073486328125e-06 M 3.517176628112793 7.536798477172852 C 1.575396537780762 7.536798477172852 -3.814697265625e-06 9.112197875976562 -3.814697265625e-06 11.05397796630859 L -3.814697265625e-06 12.14262866973877 C -3.814697265625e-06 12.83611869812012 0.5626468658447266 13.39875888824463 1.256136894226074 13.39875888824463 L 10.46777629852295 13.39875888824463 C 11.1612663269043 13.39875888824463 11.72391700744629 12.83611869812012 11.72391700744629 12.14262866973877 L 11.72391700744629 11.05397796630859 C 11.72391700744629 9.112197875976562 10.14851665496826 7.536798477172852 8.20673656463623 7.536798477172852 L 7.769706726074219 7.536798477172852 C 7.188746452331543 7.803728580474854 6.542366504669189 7.955508708953857 5.861956596374512 7.955508708953857 C 5.181546688079834 7.955508708953857 4.537786483764648 7.803728580474854 3.954206466674805 7.536798477172852 L 3.517176628112793 7.536798477172852 M 5.861956596374512 -1.000001907348633 C 8.26038646697998 -1.000001907348633 10.21164703369141 0.951258659362793 10.21164703369141 3.349688529968262 C 10.21164703369141 4.626489639282227 9.658716201782227 5.7765212059021 8.77967643737793 6.572956085205078 C 11.00103664398193 6.855273246765137 12.72391700744629 8.757183074951172 12.72391700744629 11.05397796630859 L 12.72391700744629 12.14262866973877 C 12.72391700744629 13.38665866851807 11.71181678771973 14.39875888824463 10.46777629852295 14.39875888824463 L 1.256136894226074 14.39875888824463 C 0.01209640502929688 14.39875888824463 -1.000003814697266 13.38665866851807 -1.000003814697266 12.14262866973877 L -1.000003814697266 11.05397796630859 C -1.000003814697266 8.757183074951172 0.7228765487670898 6.855273246765137 2.944236755371094 6.572956085205078 C 2.065196990966797 5.7765212059021 1.512266159057617 4.626489639282227 1.512266159057617 3.349688529968262 C 1.512266159057617 0.951258659362793 3.463526725769043 -1.000001907348633 5.861956596374512 -1.000001907348633 Z" stroke="none" fill="#fff"/>
    </g>
  </g>
</svg>
