<svg id="Icon_ionic-ios-cloud-upload" data-name="Icon ionic-ios-cloud-upload" xmlns="http://www.w3.org/2000/svg" width="22.857" height="20" viewBox="0 0 22.857 20">
  <path id="Path_15" data-name="Path 15" d="M19.513,8.223A6.7,6.7,0,0,0,7.348,5.138a3.164,3.164,0,0,0-1.2-.237A3.306,3.306,0,0,0,2.96,8.178,4.361,4.361,0,0,0,0,12.317a4.2,4.2,0,0,0,4.058,4.219h6.79V10.2L8.71,12.308a.581.581,0,0,1-.817-.826L11.018,8.4h0a.568.568,0,0,1,.183-.121.554.554,0,0,1,.223-.045.582.582,0,0,1,.406.165l3.125,3.08a.581.581,0,0,1-.817.826L12.009,10.2v6.335H18.8a4.2,4.2,0,0,0,.714-8.312Z" transform="translate(0 -2.25)" fill="#d10d74"/>
  <path id="Path_16" data-name="Path 16" d="M17.086,29.884a.58.58,0,0,0,1.161,0V24.75H17.086Z" transform="translate(-6.238 -10.465)" fill="#d10d74"/>
</svg>
