<svg xmlns="http://www.w3.org/2000/svg" width="150.64" height="50.036" viewBox="0 0 150.64 50.036"><defs><style>.a{fill:#d10074;}</style></defs><path class="a" d="M17.751,24.992a9.9,9.9,0,0,0,9.869,9.922h0C14.3,34.914,5.6,28.547,5.6,15.122V0S17.7,0,17.7,11.2v13.8Z" transform="translate(-2.629)"/><path class="a" d="M38.422,17.8A9.941,9.941,0,0,0,28.5,27.72h0C28.5,14.4,34.867,5.7,48.292,5.7H63.414s0,12.1-11.2,12.1Z" transform="translate(-13.378 -2.676)"/><path class="a" d="M57.069,38.422A9.9,9.9,0,0,0,47.2,28.5h0c13.318,0,22.02,6.367,22.02,19.792V63.414s-12.1,0-12.1-11.2v-13.8Z" transform="translate(-22.155 -13.378)"/><path class="a" d="M24.992,57.022A9.941,9.941,0,0,0,34.914,47.1h0c0,13.318-6.367,22.02-19.792,22.02H0s0-12.1,11.2-12.1Z" transform="translate(0 -22.108)"/><path class="a" d="M207.122,41.4c0,3.661-3.98,4.988-6.526,4.988-2.016,0-5.359-.743-5.359-3.343,0-3.078,2.229-3.98,4.722-4.351s5.359-.424,7.11-1.592l.053,4.3Zm5.837-10.559c0-5.571-5.412-7.641-10.559-7.641-5.784,0-11.567,1.963-11.992,8.755h5.784c.265-2.865,2.547-4.192,5.784-4.192,2.335,0,5.465.531,5.465,3.555,0,3.4-3.714,2.971-7.906,3.714-4.882.531-10.135,1.645-10.135,8.224,0,5.147,4.3,7.694,9.02,7.694,3.131,0,6.845-.955,9.126-3.184.478,2.388,2.122,3.184,4.457,3.184a14.323,14.323,0,0,0,3.661-.637s-2.812-.531-2.812-5.89l.106-13.584Z" transform="translate(-88.903 -10.89)"/><path class="a" d="M129.069,28.888c0,4.563-1.963,9.286-7.269,9.286-4.669,0-7.375-3.98-7.375-9.286,0-5.624,2.494-9.339,7.375-9.339,4.775.053,7.269,4.563,7.269,9.339M108.8,42.047h5.518V38.439h.106c1.751,3.449,5.571,4.351,9.126,4.351,7.8,0,11.355-6.686,11.355-13.743,0-7.694-4.033-14.008-12.31-14.008a9.612,9.612,0,0,0-7.853,4.139h-.106V11.961A5.825,5.825,0,0,0,108.853,5.7Z" transform="translate(-51.07 -2.676)"/><path class="a" d="M161.253,50.261h5.784V37.739c0-5.784,3.131-9.02,7.11-9.02a19.887,19.887,0,0,1,2.494.265V23.359a15,15,0,0,0-2.175-.159,8.584,8.584,0,0,0-7.694,5.784h-.106V23.89H161.2V50.261Z" transform="translate(-75.666 -10.89)"/><path class="a" d="M261.886,32.8c-.531-6.473-5.731-9.5-11.886-9.5-8.649,0-13,6.208-13,14.167,0,7.747,4.51,13.584,12.788,13.584,6.792,0,10.984-3.767,12.045-10.612H256.1c-.584,3.767-2.918,6-6.261,6-5.041,0-6.951-4.616-6.951-9.02,0-8.012,4.245-9.551,7.216-9.551,3.184,0,5.571,1.751,6,4.935Z" transform="translate(-111.246 -10.937)"/></svg>