<svg xmlns="http://www.w3.org/2000/svg" width="40" height="40" viewBox="0 0 40 40">
  <g id="Group_595" data-name="Group 595" transform="translate(-1194 -31)">
    <path id="Path_192" data-name="Path 192" d="M20,0A20,20,0,1,1,0,20,20,20,0,0,1,20,0Z" transform="translate(1194 31)" fill="#f7f7f7"/>
    <path id="Icon_ionic-ios-close" data-name="Icon ionic-ios-close" d="M19.589,18l4.8-4.8A1.124,1.124,0,0,0,22.8,11.616l-4.8,4.8-4.8-4.8A1.124,1.124,0,1,0,11.616,13.2l4.8,4.8-4.8,4.8A1.124,1.124,0,0,0,13.2,24.384l4.8-4.8,4.8,4.8A1.124,1.124,0,1,0,24.384,22.8Z" transform="translate(1196.002 33)" fill="#d10d74"/>
  </g>
</svg>
