<svg xmlns="http://www.w3.org/2000/svg" width="27" height="36" viewBox="0 0 27 36">
  <path id="Icon_awesome-file-excel" data-name="Icon awesome-file-excel" d="M15.75,9.563V0H1.688A1.683,1.683,0,0,0,0,1.688V34.313A1.683,1.683,0,0,0,1.688,36H25.313A1.683,1.683,0,0,0,27,34.313V11.25H17.438A1.692,1.692,0,0,1,15.75,9.563Zm4.226,7.488L15.75,23.625,19.976,30.2a.845.845,0,0,1-.71,1.3H16.812a.847.847,0,0,1-.745-.443c-1.378-2.545-2.566-4.83-2.566-4.83-.45,1.041-.7,1.406-2.573,4.837a.836.836,0,0,1-.738.443H7.734a.845.845,0,0,1-.71-1.3l4.24-6.574-4.24-6.574a.843.843,0,0,1,.71-1.3h2.447a.847.847,0,0,1,.745.443c1.835,3.431,1.406,2.362,2.573,4.816,0,0,.429-.823,2.573-4.816a.847.847,0,0,1,.745-.443h2.447A.839.839,0,0,1,19.976,17.051ZM27,8.571V9H18V0h.429a1.686,1.686,0,0,1,1.2.492l6.884,6.891A1.682,1.682,0,0,1,27,8.571Z" fill="#a0a5af"/>
</svg>
