<svg xmlns="http://www.w3.org/2000/svg" width="16.418" height="12.998" viewBox="0 0 16.418 12.998">
  <g id="Icon_ionic-ios-list" data-name="Icon ionic-ios-list" transform="translate(-4.5 -7.313)">
    <path id="Path_185" data-name="Path 185" d="M6.894,17.228a1.2,1.2,0,1,1-1.2-1.2A1.2,1.2,0,0,1,6.894,17.228Z" transform="translate(0 -3.417)" fill="#4d4f53"/>
    <path id="Path_186" data-name="Path 186" d="M6.894,8.51a1.2,1.2,0,1,1-1.2-1.2A1.2,1.2,0,0,1,6.894,8.51Z" transform="translate(0)" fill="#4d4f53"/>
    <path id="Path_187" data-name="Path 187" d="M6.894,25.947a1.2,1.2,0,1,1-1.2-1.2,1.2,1.2,0,0,1,1.2,1.2Z" transform="translate(0 -6.834)" fill="#4d4f53"/>
    <path id="Path_188" data-name="Path 188" d="M23.307,16.875H13.024a.684.684,0,0,0,0,1.368H23.307a.684.684,0,0,0,0-1.368Z" transform="translate(-3.073 -3.748)" fill="#4d4f53"/>
    <path id="Path_189" data-name="Path 189" d="M23.307,25.594H13.024a.684.684,0,0,0,0,1.368H23.307a.684.684,0,0,0,0-1.368Z" transform="translate(-3.073 -7.165)" fill="#4d4f53"/>
    <path id="Path_190" data-name="Path 190" d="M13.024,9.524H23.307a.684.684,0,0,0,0-1.368H13.024a.684.684,0,1,0,0,1.368Z" transform="translate(-3.073 -0.331)" fill="#4d4f53"/>
  </g>
</svg>
