<svg xmlns="http://www.w3.org/2000/svg" width="14" height="14" viewBox="0 0 14 14">
  <g id="Group_547" data-name="Group 547" transform="translate(-330 -347)">
    <path id="Path_191" data-name="Path 191" d="M7,0A7,7,0,1,1,0,7,7,7,0,0,1,7,0Z" transform="translate(330 347)" fill="#a0a5af"/>
    <g id="Group_546" data-name="Group 546" transform="translate(36.063 -328.42)">
      <path id="Path_21" data-name="Path 21" d="M17.086,26.78a.23.23,0,1,0,.459,0V24.75h-.459Z" transform="translate(283.622 659.351)" fill="#fff"/>
      <path id="Path_20" data-name="Path 20" d="M7.679,4.6A2.635,2.635,0,0,0,2.892,3.387a1.245,1.245,0,0,0-.473-.093,1.3,1.3,0,0,0-1.254,1.29A1.716,1.716,0,0,0,0,6.212a1.652,1.652,0,0,0,1.6,1.66H4.269V5.379l-.842.829a.229.229,0,0,1-.322-.325l1.23-1.212h0a.223.223,0,0,1,.072-.047A.218.218,0,0,1,4.5,4.606a.229.229,0,0,1,.16.065l1.23,1.212a.229.229,0,1,1-.322.325l-.838-.829V7.872H7.4A1.654,1.654,0,0,0,7.679,4.6Z" transform="translate(296.439 676.229)" fill="#fff"/>
    </g>
  </g>
</svg>
