<svg xmlns="http://www.w3.org/2000/svg" width="18.28" height="15.995" viewBox="0 0 18.28 15.995">
  <g id="virtual-private-cloud" transform="translate(0 -2.25)">
    <path id="Path_210" data-name="Path 210" d="M16.962,18.624V16.91a2.285,2.285,0,1,0-4.57,0v1.714a1.143,1.143,0,0,0-1.142,1.142v3.427a1.144,1.144,0,0,0,1.142,1.142h4.57A1.144,1.144,0,0,0,18.1,23.194V19.766A1.143,1.143,0,0,0,16.962,18.624ZM13.535,16.91a1.142,1.142,0,0,1,2.285,0v1.714H13.535Z" transform="translate(-5.538 -6.092)" fill="#a0a5af"/>
    <path id="Path_211" data-name="Path 211" d="M14.755,6.885a5.718,5.718,0,0,0-11.23,0,4.286,4.286,0,0,0,.754,8.5H4.57V14.246H4.281A3.143,3.143,0,0,1,3.727,8.01L4.5,7.87,4.646,7.1a4.576,4.576,0,0,1,8.986,0l.148.768.771.14A3.143,3.143,0,0,1,14,14.246h-.29v1.142H14a4.286,4.286,0,0,0,.754-8.5Z" transform="translate(0 0)" fill="#a0a5af"/>
  </g>
</svg>
