<svg xmlns="http://www.w3.org/2000/svg" width="18" height="18" viewBox="0 0 18 18">
  <path id="Icon_metro-earth2" data-name="Icon metro-earth2" d="M11.571,19.928a9,9,0,1,1,9-9A9,9,0,0,1,11.571,19.928Zm7.294-9.754a.056.056,0,0,0,.028-.039.274.274,0,0,0,.087.158c0,.006,0,0,0,.012s.008,0,.012,0a.272.272,0,0,0,.172.064.277.277,0,0,0,.235-.136.135.135,0,0,1,.012.014c0-.009,0-.018,0-.027a.273.273,0,0,0,.037-.132.282.282,0,0,0-.281-.281.278.278,0,0,0-.232.13s0-.008-.006-.006a.254.254,0,0,0-.043-.134v.291A.294.294,0,0,1,18.865,10.174ZM5.941,10.089c0-.085-.194-.229-.244-.229,0-.015-.079-.188-.109-.188,0-.058-.205-.321-.238-.206-.021.074.157.174.157.26.033,0,.173.264.2.31.3.515-.228.163-.228-.055a.717.717,0,0,1-.175-.364,1.163,1.163,0,0,1-.148-.282c0-.164-.091-.243-.271-.243-.008-.016-.16-.229-.163-.229a.6.6,0,0,0-.189-.31,2.181,2.181,0,0,1-.04-.458,1.552,1.552,0,0,0-.06-.481,7.85,7.85,0,0,0,4.434,10.7c0-.279.024-.613.088-.613,0-.042.035-.216.067-.216a3.408,3.408,0,0,0,0-.364c-.04-.08.053-.183.081-.31.156-.078.046-.862.163-.862a5.343,5.343,0,0,0,.026-.984c.03,0-.177-.22-.175-.216-.2,0-.338-.318-.338-.458a.849.849,0,0,1-.068-.229c.046,0-.284-.482-.284-.472-.174-.1.01-.232.027-.39-.151-.05,0-.458.068-.458a.127.127,0,0,1,.082-.107c.034.134.191-.067.067-.067,0-.089-.01-.279,0-.323,0-.137-.122-.406-.216-.122-.1-.05-.357-.041-.379-.2.016-.079-.146-.241-.2-.269.053-.138-.274-.323-.392-.323,0-.03-.062-.016-.081-.054-.12,0-.148-.162-.284-.162-.157,0-.315-.107-.46-.107-.048-.1-.273-.059-.325-.162-.118,0-.164-.223-.167-.3-.005-.1-.085-.451-.226-.451ZM17.335,5.575a.028.028,0,0,1,0,.012c.008,0,.019.01.028.013Zm.169.186a.182.182,0,0,1,.03.1c.02,0,.029-.01.045-.014C17.555,5.815,17.529,5.79,17.5,5.761Zm.489,2.563c.009-.243-.2-.2-.269-.338-.07,0-.1-.054-.19-.054a.116.116,0,0,0-.145.044c-.145.055-.057-.07-.166-.07.005-.139-.05-.177-.2-.162-.088.2-.223.317-.2.539.065.015.053.029.041.094.086,0,.608-.027.608-.081.018,0,.109.186.109.027.073,0,.111.17.284.121,0,.035.289-.12.134-.12Zm.028,2.87c.01-.049-.025-.071-.054-.122.077,0-.244-.595-.244-.687-.049-.024-.111-.194-.123-.256a.646.646,0,0,1-.162-.269.977.977,0,0,1-.257-.337c.1.011.243.03.243-.094-.065,0-.075-.08-.013-.08-.02-.083.044-.142.058-.207a1.525,1.525,0,0,0,.05-.292.446.446,0,0,0-.189.04c0,.055-.165-.013-.189-.013-.035-.071-.293.092-.365-.054-.116-.105-.085-.186-.123-.335-.019-.075-.122-.08-.185-.092-.176-.034-.049.21-.059.266.108,0-.068.134-.068.2-.182-.039-.121-.242-.229-.3-.032-.054-.007-.094-.082-.094,0-.072.038-.2-.041-.229,0-.035-.153-.049-.175-.094-.1,0-.322-.366-.391-.242-.043.079.037.1.053.162.14-.028.127.231.3.2a.469.469,0,0,0,.013.108c.127-.03.112.094.176.094-.046.061-.192-.1-.152.036.023.078.01.144-.091.22,0-.084-.007-.31-.095-.31-.06-.119-.237-.091-.312-.2-.061,0-.084-.189-.189-.2a.211.211,0,0,1-.122.054c-.057.114-.378.012-.378.027s-.18.429-.19.485c-.02.121-.117.123-.146.238-.015.057-.367.03-.367.073a.36.36,0,0,1-.284-.323,2.538,2.538,0,0,1,.055-.485c.031.008.037.019.055.054.093-.035.311.023.311-.081q.136,0,.081.108c.084.016.23.037.23-.081-.049,0-.055,0-.055-.054.162-.168-.122-.32-.122-.4-.057-.019-.174-.143-.091-.1s.327.119.226-.052a.019.019,0,0,0,.013-.013c.029.02.15.145.15.027.033,0,.161-.081.054-.081.01-.061.008-.111.013-.149.172.092.076-.063.163-.121,0,.112.092-.054.149-.054.067-.1.22-.023.257-.135-.083-.027-.068-.234-.068-.309.1.016.21-.134.226-.031.006.04.011.15.031.165.148.078.109-.044.109-.121-.05,0-.115-.173-.122-.256-.041.006-.106.023-.122.053-.147,0-.248-.053-.365-.053a2.09,2.09,0,0,1-.135-.176c-.082-.141.082-.1.108-.107,0-.134.557-.11.582-.324-.183,0,.189-.311.189-.309.124-.106.19-.2.345-.21.065,0,.791-.2.791-.114l.226.006A7.84,7.84,0,0,0,6.352,5.041a.2.2,0,0,1,.021.074c.074-.005.179-.052.2.041a.462.462,0,0,1-.108-.014c.026.209-.091.081-.189.081a.272.272,0,0,0-.089-.035c-.03.028-.061.055-.091.083,0,.009,0,.01,0,.02.031,0,.015.049.105.079a2,2,0,0,0,.328.073,1.044,1.044,0,0,0,.216-.016c0-.011.186-.094.055-.094.018-.074-.015-.093-.1-.094.007-.079.194-.027.271-.027.059-.1,0-.087.053-.176.062-.11.136-.015.176-.12a.189.189,0,0,1,.136.133c.049.041.3.407.3.148.089.03.133.2.135.283.161-.024.175-.145.175-.27.037,0-.014-.06-.014-.081.06-.022.136.057.136-.026.026,0,.027.026.027.054.084.016.138-.01.189.008.035.012.017.2,0,.261-.02.082-.177.083-.177.121-.178.133.21.2.271.283A.748.748,0,0,1,8.213,5.8c-.088,0-.3.093-.379.026.109,0,.146-.131.163-.256a.193.193,0,0,0-.248.124c-.047.165-.157-.007-.212.1-.021.007-.217.1-.217.067-.219.031-.162.217-.162.418.087.052.264.2.256.283.2.035.269.056.446.081a.215.215,0,0,0,.109.067c0,.116.105.1.2.1,0-.148.172.123.189.175-.024,0,.04.151.054.2-.027-.01-.035,0-.027.027.085.031.221.023.244-.067-.082,0-.055-.094-.055-.149a.1.1,0,0,1,.013-.188c0,.076.278-.048.122-.107a.3.3,0,0,0,0-.293c-.04-.047-.09,0-.11-.071.106-.026.028-.229.027-.323.034-.013.121.021.121,0,.1,0,.277.132.338-.028.174.079.035.155.217.095a.781.781,0,0,0,.23.242c0,.01-.005.067.04.067,0,.043-.027-.025-.027.053.025,0,.163.028.163-.026.087,0,.148-.107.148-.188.055-.035.15.3.216.3.048.075.2.185.2.256.033.033.067.024.067.122.041,0,.122-.161.122-.014a.256.256,0,0,1,.163.148c-.1,0-.005.095-.055.095,0,.093-.209.019-.256.014-.065.29-.455.082-.691.156a.805.805,0,0,0-.377.45c.151,0,.217-.131.352-.176.11,0,.131-.066.23-.094,0,.028.027.013.027.041-.192,0-.075.124-.019.215a.232.232,0,0,0,.119.1.535.535,0,0,0-.046.1h0c-.037.012-.108.039-.122.067-.218.024-.11.01-.1-.043.008.019.086,0,.083,0-.013-.065-.033-.056-.013-.094-.118,0-.176.054-.271.054-.016.032-.1.108-.135.108a.64.64,0,0,1-.163.283c0-.022-.192.121-.176.121-.043.069-.089.067-.109.175a.908.908,0,0,0-.067.215c-.084.056-.115.283-.257.283-.087.173-.244.15-.244.377a1.187,1.187,0,0,1,.089.37c.02.1.052.194-.075.2-.009-.014-.1-.149-.082-.149a.857.857,0,0,0-.108-.29c-.053-.075-.152.012-.23-.021-.033-.066-.258-.081-.338-.081.013.05.049.066.054.122a.307.307,0,0,1-.173.048c-.118-.016-.1-.108-.233-.1a.391.391,0,0,0-.352.4,1.191,1.191,0,0,0,0,.4c0,.114.095.2.095.283.092,0,.195.2.284.2.01.071-.045.083.108.082,0-.008.083-.052.095-.108-.106-.026,0-.162.067-.188,0,.1.135-.032.135-.04l.149-.054c0-.109.1.011.027.054-.073,0-.068.122-.108.122-.017.087-.052.162-.072.246-.026.1.058.115.031.212a1.691,1.691,0,0,0,.325,0,.1.1,0,0,0-.013-.054c.157,0,.013.3.109.3,0,.112.054.2.054.269a.179.179,0,0,1,.094.2c.09.012.283.035.283-.081.137,0,.146.093.136.188.272,0,.1-.269.215-.269.011-.044.029-.052.056-.023.056.03.1-.056.142-.083a.366.366,0,0,1,.073-.038c.038.023.042.016.058.042a.405.405,0,0,0,.213-.086c.1.012.066.221.248.234a.647.647,0,0,0,.305-.018c.016-.011.074.037.08.057.061,0,.056.053.082.052a.022.022,0,0,0,.028.013c.008.023.056.03.082.094,0,.058.122.069.122.107.087.044-.03.056.1.1a.972.972,0,0,0,.221.066c.025-.1.107.013.149.013.021.044.033.011.053.054.125.1.043.064.095.175.06.039.079.177.1.256-.048,0-.014.185-.014.2-.058,0,.15.111.15-.028.085.014.142.107.2.107-.035.082.094.143.094.014.128.013.094.2.082.269.1,0,.123-.053.2-.063a.55.55,0,0,1,.3-.1.562.562,0,0,1,.563.562.555.555,0,0,1-.477.545.984.984,0,0,1-.071.076c0,.027-.006.3-.014.3,0,.054-.041.35-.081.35,0,.152-.1.18-.135.323-.082.061-.3.162-.339.229-.064,0-.111.054-.175.054-.009.019-.147.149-.122.149-.01.1.007.321-.044.384-.035.042-.085.037-.063.1-.076,0,0,.054-.115.054a.267.267,0,0,0-.214.2.3.3,0,0,1-.13.26c0,.038-.176.049-.176.149.016,0,0,.183,0,.2a.32.32,0,0,0-.2.094c-.177,0-.155.018-.27.094,0,.024-.016.107-.041.107,0,.137-.1.012-.176.082.031,0,.07.134.054.134,0,.119-.074.129-.149.216-.035.024-.069.122-.095.122,0,.08-.04.152-.04.229.017,0,0,.034.013.066.038-.011.039-.053.054-.053,0-.067.107.04.041.04-.056.084-.116.086-.149.2-.034,0-.063.033-.088.071a7.829,7.829,0,0,0,8.684-3.31,2.158,2.158,0,0,1,.061-.455c.055.04.1.116.135,0-.1-.019-.074-.053-.04-.134a.341.341,0,0,0,.173.046c.019-.035.033-.072.052-.107-.055-.043.021-.154.047-.1.014-.027.026-.055.039-.082-.006,0,0,0-.014,0,0-.049.009-.043.041-.068a.049.049,0,0,0,0,.01,7.834,7.834,0,0,0,.775-3.389c0-.04-.006-.078-.006-.118-.015.055-.042.115-.081.128,0,.035-.4.21-.378.283-.071,0-.319.071-.365.161a.627.627,0,0,0-.271.108c-.251,0-.2-.3-.324-.3Zm1.144-3.079h-.3s0,0-.007-.007-.079-.143-.054-.175a.4.4,0,0,1,.048,0c-.025-.062-.053-.123-.08-.184a.389.389,0,0,1-.2.1c0,.023-.12.256,0,.256a.041.041,0,0,0,0,.012.28.28,0,0,0,.024.559h.111c.007.051.034.1.133.118.031.13.263.176.3.04-.1,0-.066-.094-.057-.158h.079a.281.281,0,1,0,0-.562Zm-.82,3.657c.02,0,.15,0,.15-.025a1.375,1.375,0,0,0,.392-.055c0,.174-.147.272-.122.445-.1,0-.055.1-.055.134-.063.039-.073.11-.149.149,0,.078-.176.208-.227.274s-.235.2-.258.3c.006-.023-.322.341-.245.341,0,.068-.092.606.027.606,0,.047.1.5.04.5,0,.145-.095.234-.095.35-.046.032-.112.049-.135.1-.083,0-.123.175-.162.175,0,.187-.055.326-.055.539.015,0-.108.3-.108.323-.1.067-.352.307-.352.432,0,0-.175.246-.2.283a1.741,1.741,0,0,0-.46.108c-.087,0-.31.068-.365-.013,0-.086-.047-.194-.054-.311-.042,0-.048-.175-.095-.175A4.647,4.647,0,0,1,15.6,15.7a.905.905,0,0,0-.054-.229c0-.186-.136-.34-.136-.512-.04,0-.123-.377-.081-.377a4.226,4.226,0,0,1,.1-.547,1.3,1.3,0,0,0-.057-.559c-.023,0-.1-.129-.109-.161a.41.41,0,0,1-.149-.35.912.912,0,0,0,.082-.485.6.6,0,0,0-.339-.04c-.087-.175-.673-.067-.839-.067,0,.1-.408-.019-.446-.095-.1,0-.3-.212-.3-.31a1.11,1.11,0,0,1-.283-.552c-.094-.047-.066-.229-.014-.229a.961.961,0,0,0-.055-.286c-.016-.057.055-.118.055-.186a.813.813,0,0,1,.11-.475,1.837,1.837,0,0,0,.106-.2c.056-.141.073-.007.149-.133.073-.036.115-.156.19-.215.033-.043.034-.061,0-.094a.811.811,0,0,0,.095-.255c.106-.147.031-.08.135-.067.038-.042.1-.148.162-.148a.171.171,0,0,1,.149-.081c0,.081.22-.026.244-.026a.622.622,0,0,1,.338-.162c0-.092.479.026.555.013v-.04c.1.024.289.435.27.526a1.054,1.054,0,0,1,.2,0c0,.087.164.109.239.113.1.005.409-.011.409-.153a.126.126,0,0,1,.136.148c.091.01.633.021.595.134.079,0,.1.136.176.136-.015.093.094.337.175.337a.424.424,0,0,0,.122.282.987.987,0,0,0,.283.431c-.051.1.077.174.109.269-.007,0,.028.141.067.162,0,.1.2.485.312.485.007.047-.1.069.04.079Zm-2.92-3.018c.021-.08.068-.018.112,0,.1.034.068,0,.145-.037C15.682,8.935,15.556,8.768,15.425,8.755Zm-.285-.4c.055,0,.07.248-.081.2,0-.061-.039-.175.041-.175.023.1.04.057.04-.027Zm-.067-.161c.062.027.09.018.081-.027.082.027-.011.085-.027.148C15.085,8.269,15.1,8.254,15.073,8.189Zm-1.447-1.2c-.133-.034.137-.074.149-.107a.063.063,0,0,1-.059-.086c.02-.047.053.056.1.033.055-.006.162-.087.107.07s-.107.277-.31.28c-.073-.073,0-.111.014-.189Zm.5-.552c.109,0,.014.081-.011.081.019.007,0,.073,0,.094.1,0,.1-.063.175-.081-.015.091-.116.108-.017.186.052.041.106.089.085.152.129,0,.148.124.122.269.071,0,.068,0,.068-.068.069.019.064.082,0,.082-.064.127-.232.121-.352.121,0-.1-.02-.1-.11-.076-.124.038-.027-.1-.025-.166.013,0,.281.012.121-.04C14.172,6.844,14.139,6.8,14,6.8c0-.1-.035-.092-.051-.2-.023-.16.125.011.173-.164Zm-.041.876c0,.033-.068.06-.081.013.013,0,.018,0,.013-.013ZM12.977,5.866h-.562a.281.281,0,1,1,0-.562h.562a.281.281,0,1,1,0,.562ZM9.7,10.844c.031,0,.068.012.068.04C9.727,10.884,9.674,10.923,9.7,10.844Zm-.513.028c-.023.043-.2.035-.23-.014.067,0,.12.028.189,0,0-.037-.031-.067-.054-.107.074,0,.156.056.257.054,0-.062-.028.014,0-.068a.316.316,0,0,1,.148.148,2.006,2.006,0,0,0-.31-.013Zm-.6-.323a.379.379,0,0,1-.244-.122c.067,0,.133.03.176-.04.172.017.187.136.325.136.026.046.173.15.031.164a.312.312,0,0,1-.287-.137Zm.108.377c-.05,0-.133.022-.095-.082C8.672,10.853,8.7,10.88,8.7,10.925Zm.094-.014-.081.014C8.721,10.863,8.78,10.793,8.794,10.912Zm.5.592c-.011.038-.009.04-.053.04,0-.017.008-.035.013-.053ZM8.078,10.386l.041.014c.017.067.054.034.094.014C8.213,10.491,8.031,10.513,8.078,10.386Z" transform="translate(-2.571 -1.928)" fill="#a0a5af"/>
</svg>
