<svg xmlns="http://www.w3.org/2000/svg" width="16.831" height="14.023" viewBox="0 0 16.831 14.023">
  <path id="Icon_ionic-ios-share-alt" data-name="Icon ionic-ios-share-alt" d="M21.184,12.64,15,6.855a.316.316,0,0,0-.245-.105c-.193.009-.438.145-.438.351V10a.187.187,0,0,1-.158.18c-6.148.942-8.738,5.544-9.654,10.32-.035.188.219.364.337.215a11.176,11.176,0,0,1,9.291-4.707.217.217,0,0,1,.184.21v2.849a.376.376,0,0,0,.635.232l6.227-5.885a.484.484,0,0,0,.153-.368A.587.587,0,0,0,21.184,12.64Z" transform="translate(-4.502 -6.749)" fill="#a0a5af"/>
</svg>
