<svg id="Icon_ionic-ios-checkbox-outline" data-name="Icon ionic-ios-checkbox-outline" xmlns="http://www.w3.org/2000/svg" width="15.996" height="15.996" viewBox="0 0 15.996 15.996">
  <path id="Path_196" data-name="Path 196" d="M19.163,4.5H5.833A1.332,1.332,0,0,0,4.5,5.833v13.33A1.332,1.332,0,0,0,5.833,20.5h13.33A1.332,1.332,0,0,0,20.5,19.163V5.833A1.332,1.332,0,0,0,19.163,4.5ZM19.33,19A.334.334,0,0,1,19,19.33H6A.334.334,0,0,1,5.666,19V6A.334.334,0,0,1,6,5.666H19A.334.334,0,0,1,19.33,6Z" transform="translate(-4.5 -4.5)" fill="#a0a5af"/>
</svg>
