<svg xmlns="http://www.w3.org/2000/svg" xmlns:xlink="http://www.w3.org/1999/xlink" width="54.625" height="56.562" viewBox="0 0 54.625 56.562">
  <defs>
    <radialGradient id="radial-gradient" cx="0.5" cy="0.5" r="0.5" gradientTransform="matrix(0.232, 0.973, -0.973, 0.232, 0.871, -0.102)" gradientUnits="objectBoundingBox">
      <stop offset="0" stop-color="#2a0029"/>
      <stop offset="1" stop-color="#fff"/>
    </radialGradient>
  </defs>
  <g id="Group_623" data-name="Group 623" transform="translate(-218.375 -190.225)">
    <g id="Group_618" data-name="Group 618">
      <circle id="Ellipse_38" data-name="Ellipse 38" cx="22.568" cy="22.568" r="22.568" transform="translate(218.375 234.28) rotate(-77.441)" fill="#fff"/>
      <circle id="Ellipse_39" data-name="Ellipse 39" cx="20.148" cy="20.148" r="20.148" transform="translate(224.463 237.448) rotate(-76.6)" fill="url(#radial-gradient)" style="mix-blend-mode: multiply;isolation: isolate"/>
      <path id="Path_230" data-name="Path 230" d="M265.457,217.161a20.147,20.147,0,1,1-20.147-20.15A20.061,20.061,0,0,1,265.457,217.161Z" fill="#121e3d"/>
      <path id="Path_231" data-name="Path 231" d="M260.076,228.081c-.585-1.024-6.39-2.467-9.075-3.372a7.333,7.333,0,0,1-1.364-.641,4.964,4.964,0,0,1-1.2-3c.081-.063.17-.113.247-.182a11.357,11.357,0,0,0,2.819-4.553,7.653,7.653,0,0,0,.23-.881c2.048-.819,1.906-2.908,1.477-4.1a.583.583,0,0,0-.236-.307,14.354,14.354,0,0,0-.1-5.308c-.46-2.467-3.63-3.893-6.6-4.214a9.32,9.32,0,0,0-2.832.222,3.553,3.553,0,0,0-1.963,1.453,4.273,4.273,0,0,0-3.819,3.253,11.22,11.22,0,0,0-.182,4.612.652.652,0,0,0-.059.1c-.445,1.229-.576,3.423,1.71,4.175a7.675,7.675,0,0,0,.259.988,11.357,11.357,0,0,0,2.819,4.553l.011.008a5.183,5.183,0,0,1-1.229,3.17,7.332,7.332,0,0,1-1.364.641c-2.688.9-8.49,2.348-9.075,3.372a12.772,12.772,0,0,0-.687,2.006,20.145,20.145,0,0,0,30.9,0A12.947,12.947,0,0,0,260.076,228.081Z" fill="#fff"/>
    </g>
  </g>
</svg>
